# xmcd
#
# Track frame offsets:
#	150
#	12813
#	25521
#	34972
#	43910
#	56590
#	67077
#	80186
#	90242
#	102909
#	111703
#	127812
#	140208
#
# Disc length: 2042 seconds
#
# Revision: 0
# Processed by: cddbd v1.4PL0 Copyright (c) Steve Scherf et al.
# Submitted via: EasyCDDAExtractor 4.6.9.1
#
DISCID=b507f80d
DTITLE=Baucom, Bibey and Blueridge - Come Along With Me
DYEAR=2002
DGENRE=Bluegrass
TTITLE0=Gonna Travel On
TTITLE1=It's All My Fault
TTITLE2=Vandiver
TTITLE3=Shifting Sands
TTITLE4=Livin' It Up
TTITLE5=Prayer Bells Of Heaven
TTITLE6=The Fiddler
TTITLE7=My Lord's Going To Set Me Free
TTITLE8=Rock Hearts
TTITLE9=Come Along With Me
TTITLE10=I'll Still Write Your Name In The Sand
TTITLE11=He Broke The Chains
TTITLE12=The New John Henry Blues
EXTD=
EXTT0=
EXTT1=
EXTT2=
EXTT3=
EXTT4=
EXTT5=
EXTT6=
EXTT7=
EXTT8=
EXTT9=
EXTT10=
EXTT11=
EXTT12=
PLAYORDER=
